<svg xmlns="http://www.w3.org/2000/svg" viewBox="0 0 444.98 492.93"><defs><style>.cls-1{fill:#ffa7ab;}.cls-2{fill:#c66;}.cls-3{fill:#fff;opacity:0.5;}.cls-4{font-size:379.24px;fill:#966;font-family:Courier;}</style></defs><g id="Calque_2" data-name="Calque 2"><g id="Calque_9" data-name="Calque 9"><rect class="cls-1" y="222.49" width="444.98" height="27.81"/><circle class="cls-2" cx="222.49" cy="247.77" r="222.49"/><circle class="cls-1" cx="222.49" cy="222.49" r="222.49"/><ellipse class="cls-3" cx="222.49" cy="111.25" rx="192.72" ry="111.25"/><path class="cls-2" d="M222.49,411.48c-104.21,0-189-84.78-189-189s84.78-189,189-189,189,84.78,189,189S326.7,411.48,222.49,411.48Zm0-369.13c-99.33,0-180.14,80.81-180.14,180.14s80.81,180.14,180.14,180.14,180.14-80.81,180.14-180.14S321.82,42.35,222.49,42.35Z"/><path class="cls-2" d="M223.12,60.05c97.52,0,177.61,76,184.13,171.92.28-4.18.44-8.39.44-12.64,0-101.77-82.8-184.57-184.57-184.57S38.56,117.56,38.56,219.33q0,6.38.44,12.64C45.52,136.08,125.6,60.05,223.12,60.05Z"/><text class="cls-4" transform="translate(108.96 337.75)">S</text></g></g></svg>